<?xml version="1.0" encoding="UTF-8"?>
<svg version="1.1" xmlns="http://www.w3.org/2000/svg" width="888" height="262">
<path d="M0 0 C31.02 0 62.04 0 94 0 C99.76870606 10.96054152 105.40408983 21.67550085 110.4375 32.9375 C111.43172488 35.15695707 112.43024255 37.37449746 113.43359375 39.58984375 C113.85697021 40.53722412 114.28034668 41.48460449 114.71655273 42.46069336 C115.93979785 44.88088975 117.30181111 46.89328016 119 49 C122.35175633 44.38301114 125.59792632 39.75634597 128.4453125 34.80859375 C128.86828613 34.08736328 129.29125977 33.36613281 129.72705078 32.62304688 C130.56534339 31.18376888 131.38467061 29.73324955 132.18310547 28.27148438 C134.29346313 24.68534607 135.167818 23.24342066 139.28515625 22.0390625 C140.51105469 22.02617188 141.73695313 22.01328125 143 22 C144.01876221 21.97353394 144.01876221 21.97353394 145.05810547 21.9465332 C147.18670034 21.90227916 149.30867474 21.91218003 151.4375 21.9375 C152.16904297 21.94201172 152.90058594 21.94652344 153.65429688 21.95117188 C155.43623419 21.96281852 157.21812863 21.98074809 159 22 C158.26117373 26.0281213 156.39638614 29.50672054 154.5625 33.125 C154.21268066 33.82077148 153.86286133 34.51654297 153.50244141 35.23339844 C150.35181307 41.43537929 146.97849057 47.50472223 143.57250977 53.5690918 C140.77725496 58.55834979 138.14663511 63.59849506 135.62890625 68.734375 C133.45910807 73.08437807 131.20152091 77.38594338 128.9375 81.6875 C128.52564453 82.47181396 128.11378906 83.25612793 127.68945312 84.06420898 C124.86653565 89.41795976 121.95965405 94.72068077 119 100 C118.34 100 117.68 100 117 100 C116.443125 98.8140625 115.88625 97.628125 115.3125 96.40625 C110.65934125 86.52355316 105.90707402 76.70246269 100.98388672 66.95166016 C98.98081369 62.97831877 96.99654576 58.99554546 95.00854492 55.01464844 C93.29815481 51.5913449 91.58296427 48.1705857 89.859375 44.75390625 C86.40725951 37.90034852 83.02430037 31.05670085 80 24 C76.04 24 72.08 24 68 24 C68.52207031 24.96035156 69.04414062 25.92070313 69.58203125 26.91015625 C73.95863694 35.03155982 78.11150694 43.22788099 82.05078125 51.5703125 C87.99189173 64.06888118 94.16583098 76.44546941 100.375 88.8125 C101.43899459 90.9354504 102.5027972 93.05849704 103.56640625 95.18164062 C105.5110303 99.06284746 107.45674858 102.943501 109.40380859 106.82348633 C109.83054871 107.67657379 110.25728882 108.52966125 110.69696045 109.40859985 C111.60517085 111.21478952 112.52154288 113.01688848 113.44415283 114.81576538 C113.90295837 115.71533966 114.36176392 116.61491394 114.83447266 117.54174805 C115.25024567 118.35040817 115.66601868 119.1590683 116.09439087 119.99223328 C117 122 117 122 117 124 C117.66 124 118.32 124 119 124 C119.38285156 122.97326172 119.38285156 122.97326172 119.7734375 121.92578125 C121.1850374 118.55862097 122.8782937 115.38782976 124.625 112.1875 C127.4243742 107.00064862 130.13775534 101.7834733 132.75 96.5 C140.23789417 81.40595211 148.10612403 66.51531188 156.27880859 51.78173828 C158.59053502 47.60313929 160.83805156 43.41570949 162.9375 39.125 C167.14833159 30.51918966 171.86489722 22.17209931 176.4765625 13.77685547 C178.99330913 9.18943941 181.49600384 4.59438581 184 0 C192.25 0 200.5 0 209 0 C208.02871683 4.85641586 206.40073084 8.14645792 203.9375 12.3125 C200.914205 17.55287799 198.02662986 22.81216915 195.375 28.25 C191.60020842 35.95188022 187.56017309 43.50847077 183.5 51.0625 C183.17047333 51.67581177 182.84094666 52.28912354 182.50143433 52.92102051 C180.33675841 56.94867767 178.16857068 60.97443847 176 65 C170.46537122 75.27705078 170.46537122 75.27705078 165.1875 85.6875 C162.00725791 92.12640112 158.50656356 98.38001046 155.02587891 104.65942383 C152.61346082 109.0244979 150.25184066 113.39237372 148.0625 117.875 C145.37468022 123.36550366 142.44591417 128.70784269 139.5 134.0625 C132.43083657 146.92004219 125.70818749 159.95164779 119 173 C116 172 116 172 114.30859375 169.0703125 C113.67563773 167.75963911 113.05268796 166.44410645 112.4375 165.125 C111.72868566 163.65392302 111.01765336 162.18391316 110.3046875 160.71484375 C109.93053711 159.94124512 109.55638672 159.16764648 109.17089844 158.37060547 C107.22399255 154.42889234 105.13612807 150.5635678 103.0625 146.6875 C99.29056528 139.59560061 95.78858603 132.41250715 92.39697266 125.13232422 C89.34704486 118.62929416 86.0510141 112.27829818 82.67333984 105.94042969 C79.57485267 100.12182246 76.58903005 94.25629405 73.68725586 88.3371582 C71.60967295 84.12382684 69.36183429 80.05777698 67 76 C58.45092962 94.09122359 50.03314619 112.22842247 41.90234375 130.51171875 C38.98614253 137.0309788 35.99282012 143.5155564 33 150 C44.88 149.67 56.76 149.34 69 149 C67.68 146.03 66.36 143.06 65 140 C65 139.01 65 138.02 65 137 C72.26 137 79.52 137 87 137 C90.4375 143.875 90.4375 143.875 91.59545898 146.1953125 C93.56284851 150.13664795 95.54131548 154.07197307 97.53515625 158 C97.94644775 158.81355957 98.35773926 159.62711914 98.78149414 160.46533203 C99.58608842 162.05646518 100.39380981 163.64602135 101.20483398 165.23388672 C104 170.77493216 104 170.77493216 104 173 C69.02 173 34.04 173 -2 173 C-1.28841734 169.44208672 -0.86088969 167.34944261 0.63671875 164.28515625 C0.96357666 163.60630371 1.29043457 162.92745117 1.62719727 162.22802734 C2.15204712 161.15609131 2.15204712 161.15609131 2.6875 160.0625 C5.26098814 154.7086794 7.75331697 149.34838788 10.0625 143.875 C11.9957553 139.29403302 14.01377666 134.76931274 16.12890625 130.26953125 C16.74989086 128.944801 17.37056242 127.61992397 17.9909668 126.29492188 C18.31737152 125.59802246 18.64377625 124.90112305 18.98007202 124.18310547 C22.30280603 117.07095742 25.58501053 109.93983622 28.875 102.8125 C29.27184998 101.95282623 29.66869995 101.09315247 30.07757568 100.20742798 C36.49851739 86.29355377 42.85818911 72.35573301 49.0625 58.34375 C49.7499374 56.79163894 50.43743658 55.23955524 51.125 53.6875 C51.61383667 52.58317627 51.61383667 52.58317627 52.11254883 51.45654297 C54.81278266 45.37608694 57.61481293 39.34727241 60.45703125 33.33203125 C62.0379383 29.91807247 63.51798463 26.45803587 65 23 C54.77 23 44.54 23 34 23 C35.32 25.97 36.64 28.94 38 32 C38 33.32 38 34.64 38 36 C31.07 36 24.14 36 17 36 C12.57432877 27.2291243 8.21464577 18.43681624 4 9.5625 C3.60240479 8.72807373 3.20480957 7.89364746 2.79516602 7.03393555 C2.42963623 6.26090088 2.06410645 5.48786621 1.6875 4.69140625 C1.19830078 3.65802124 1.19830078 3.65802124 0.69921875 2.60375977 C0 1 0 1 0 0 Z " fill="#FFFFFF" transform="translate(17,45)"/>
<path d="M0 0 C11.1375 -0.04125 22.275 -0.0825 33.75 -0.125 C37.24303711 -0.14320801 40.73607422 -0.16141602 44.33496094 -0.18017578 C48.66064453 -0.18920898 48.66064453 -0.18920898 50.69732666 -0.19088745 C52.09431235 -0.1939221 53.49129341 -0.20087855 54.88824463 -0.21115112 C69.86685891 -0.31561593 86.34980104 0.2413979 98 11 C104.44399195 18.30090577 105.52555693 25.64187419 105.375 35.23046875 C104.64131203 42.60556133 101.7230644 47.77575558 96.1875 52.625 C95.135625 53.40875 94.08375 54.1925 93 55 C93.65226563 55.47308594 94.30453125 55.94617188 94.9765625 56.43359375 C102.74450322 62.31110642 109.12642238 68.53221318 110.81640625 78.48046875 C111.41386632 86.67965484 111.18126728 95.27719866 106 102 C95.49356452 113.43285464 81.82778715 116.56813988 66.74386597 117.26156616 C62.43145808 117.37700316 58.12175854 117.33998588 53.80859375 117.29296875 C52.41606002 117.28853734 51.02352122 117.28548953 49.63098145 117.28381348 C44.56640956 117.26832293 39.50194585 117.22644225 34.4375 117.1875 C23.073125 117.125625 11.70875 117.06375 0 117 C0 78.39 0 39.78 0 0 Z M29 22 C29 29.92 29 37.84 29 46 C34.44518867 46.09203136 39.88765991 46.17160578 45.33300781 46.21972656 C47.18368696 46.23979339 49.03430309 46.26705345 50.88476562 46.30175781 C53.55093977 46.35049433 56.21627287 46.37301787 58.8828125 46.390625 C59.70492218 46.41127014 60.52703186 46.43191528 61.37405396 46.45318604 C66.72865217 46.45525913 69.76800459 45.58259883 74 42 C76.69512623 37.95731066 76.77781883 34.7479358 76 30 C74.2077118 26.20739014 71.80227232 24.29122863 67.83764648 22.85205078 C63.65203433 21.92274316 59.92300832 21.74436343 55.66015625 21.8046875 C54.89319931 21.8075174 54.12624237 21.81034729 53.33604431 21.81326294 C50.91136379 21.82436525 48.48706691 21.84945033 46.0625 21.875 C44.4082085 21.8850427 42.75391115 21.89416628 41.09960938 21.90234375 C37.06614327 21.92256163 33.03349578 21.9617275 29 22 Z M29 68 C29 76.58 29 85.16 29 94 C34.83576204 94.09214361 40.66897124 94.17168646 46.50488281 94.21972656 C48.48739199 94.23976497 50.46984263 94.26700353 52.45214844 94.30175781 C55.31199641 94.35061954 58.17105881 94.37304673 61.03125 94.390625 C62.34736267 94.42159271 62.34736267 94.42159271 63.69006348 94.45318604 C69.52836279 94.45528524 74.19538546 93.47723175 79 90 C81.15164703 86.77252945 81.27245079 85.79494361 81.25 82.0625 C81.25515625 81.20785156 81.2603125 80.35320312 81.265625 79.47265625 C80.98030493 76.81666203 80.43016979 75.24397011 79 73 C72.47021575 67.92127892 66.90435578 67.85290718 58.98046875 67.90234375 C58.12189774 67.9037587 57.26332672 67.90517365 56.3787384 67.90663147 C53.64828951 67.91220943 50.91792393 67.92475786 48.1875 67.9375 C46.3313814 67.94251785 44.4752615 67.94708026 42.61914062 67.95117188 C38.0793695 67.96131888 33.53977754 67.98089855 29 68 Z " fill="#FFFFFF" transform="translate(647,45)"/>
<path d="M0 0 C8.25 0 16.5 0 25 0 C25.66 1.32 26.32 2.64 27 4 C27.66 4 28.32 4 29 4 C30.3046875 5.4765625 30.3046875 5.4765625 31.875 7.625 C35.01792094 11.79165245 38.32782461 15.75183424 41.75 19.6875 C45.88846743 24.46200505 49.87868997 29.31901213 53.75 34.3125 C57.35286518 38.95840038 61.06807808 43.42319295 65.0234375 47.77734375 C70.24673187 53.65096924 75.09126373 59.86407966 80 66 C80.33 44.22 80.66 22.44 81 0 C90.57 0 100.14 0 110 0 C110 38.61 110 77.22 110 117 C86 117 86 117 79.5 111.625 C76 106.7173913 76 106.7173913 76 104 C75.34 104 74.68 104 74 104 C72.546875 102.41015625 72.546875 102.41015625 70.75 100.0625 C66.96430953 95.21186938 63.1025352 90.43447356 59.1875 85.6875 C58.58220459 84.95241211 57.97690918 84.21732422 57.35327148 83.45996094 C54.2048716 79.64407507 51.03919593 75.8451824 47.82275391 72.08642578 C41.65609813 64.84314727 35.90315167 57.51310213 30 50 C29.67 72.11 29.34 94.22 29 117 C19.43 117 9.86 117 0 117 C0 78.39 0 39.78 0 0 Z " fill="#FFFFFF" transform="translate(384,45)"/>
<path d="M0 0 C30.36 0 60.72 0 92 0 C92 7.59 92 15.18 92 23 C71.21 23 50.42 23 29 23 C29 30.59 29 38.18 29 46 C47.48 46 65.96 46 85 46 C85 53.26 85 60.52 85 68 C84 69 84 69 81.79173279 69.12025452 C80.81688431 69.11803391 79.84203583 69.11581329 78.83764648 69.11352539 C77.73658066 69.11344986 76.63551483 69.11337433 75.50108337 69.11329651 C74.3031868 69.10813522 73.10529022 69.10297394 71.87109375 69.09765625 C70.65172623 69.0962413 69.4323587 69.09482635 68.17604065 69.09336853 C64.2631693 69.08774967 60.35035419 69.07519396 56.4375 69.0625 C53.79231853 69.05748743 51.14713617 69.0529241 48.50195312 69.04882812 C42.00126274 69.03862296 35.50069467 69.01905121 29 69 C29 76.92 29 84.84 29 93 C50.45 93 71.9 93 94 93 C94 100.92 94 108.84 94 117 C81.89157724 117.02254957 69.78316831 117.04091424 57.67472935 117.05181217 C52.05292038 117.05704136 46.43112647 117.06413966 40.80932617 117.07543945 C35.38881723 117.08626706 29.9683228 117.09227656 24.54780388 117.09487724 C22.47485055 117.09673172 20.40189806 117.10035277 18.32895088 117.10573006 C15.43616107 117.1129388 12.54343204 117.11399101 9.65063477 117.11352539 C8.78461136 117.11712067 7.91858795 117.12071594 7.02632141 117.12442017 C1.11405216 117.11405216 1.11405216 117.11405216 0 116 C-0.09575309 114.49448826 -0.12188187 112.9844897 -0.12025452 111.47593689 C-0.12162918 110.49852036 -0.12300385 109.52110382 -0.12442017 108.5140686 C-0.12082489 107.43297821 -0.11722961 106.35188782 -0.11352539 105.23803711 C-0.11367142 104.1064769 -0.11381744 102.97491669 -0.1139679 101.80906677 C-0.11326819 98.04847329 -0.10547311 94.28792863 -0.09765625 90.52734375 C-0.09579227 87.92802457 -0.09436828 85.32870503 -0.09336853 82.72938538 C-0.08993341 76.57411423 -0.08204256 70.4188634 -0.07201904 64.26359993 C-0.05976279 56.57091897 -0.0542752 48.87823516 -0.04882812 41.18554688 C-0.03907712 27.45701747 -0.01904682 13.72852665 0 0 Z " fill="#FFFFFF" transform="translate(776,45)"/>
<path d="M0 0 C32.67 0 65.34 0 99 0 C100 18 100 18 96.25 23.8125 C94.52244244 25.56408849 92.77108721 27.29243816 91 29 C89.17921868 31.06314709 87.43805648 33.18971328 85.6875 35.3125 C82.82035761 38.70928692 79.93033848 42.08588623 77.01953125 45.4453125 C72.02927496 51.21269345 67.15487034 57.01989434 62.5 63.0625 C58.37551364 68.41177038 54.00139014 73.42711789 49.32226562 78.29907227 C45.15084954 82.6792046 41.78530696 87.13317677 38 92 C69.68 92.495 69.68 92.495 102 93 C102 100.92 102 108.84 102 117 C88.58773907 117.02254861 75.17549062 117.04091369 61.76321507 117.05181217 C55.53606528 117.0570416 49.30892908 117.06414033 43.08178711 117.07543945 C37.07773135 117.08626621 31.07368871 117.09227638 25.06962395 117.09487724 C22.7733839 117.09673188 20.47714461 117.10035321 18.18091011 117.10573006 C14.97679186 117.11293768 11.7727285 117.11399106 8.56860352 117.11352539 C7.12930733 117.1189183 7.12930733 117.1189183 5.66093445 117.12442017 C4.79290192 117.1230455 3.92486938 117.12167084 3.03053284 117.12025452 C1.8925794 117.12163721 1.8925794 117.12163721 0.731637 117.12304783 C-1 117 -1 117 -2 116 C-3.5204028 101.21917688 -3.5204028 101.21917688 -0.6015625 95.0390625 C1.45797632 92.50877194 3.66592259 90.27954289 6 88 C8.02262846 85.70280349 9.97623588 83.34959505 11.9375 81 C12.4219458 80.43498779 12.9063916 79.86997559 13.40551758 79.2878418 C15.97239724 76.33027906 15.97239724 76.33027906 18 73 C18.66 73 19.32 73 20 73 C20.21527344 72.47535156 20.43054688 71.95070313 20.65234375 71.41015625 C22.52859669 68.05465461 25.03485322 65.3090789 27.5625 62.4375 C28.65337612 61.18318878 29.74321007 59.92797046 30.83203125 58.671875 C31.37037598 58.05119141 31.9087207 57.43050781 32.46337891 56.79101562 C34.60570812 54.29401418 36.68029017 51.7448378 38.75 49.1875 C41.42900355 45.88692907 44.15783256 42.66107206 47 39.5 C51.48001095 34.45998768 55.72988163 29.21903356 60 24 C30.3 23.505 30.3 23.505 0 23 C0 15.41 0 7.82 0 0 Z " fill="#FFFFFF" transform="translate(265,45)"/>
<path d="M0 0 C10.56 0 21.12 0 32 0 C39.15719771 16.20310036 46.23451059 32.43790606 53.25195312 48.7019043 C57.47211755 58.48083459 61.72120671 68.24657534 66 78 C68.95243595 73.19584004 71.28961088 68.25000231 73.625 63.125 C74.08793457 62.11356934 74.55086914 61.10213867 75.02783203 60.06005859 C80.53202865 47.95294915 85.80509085 35.74320613 91.07275391 23.53173828 C91.42722595 22.71282104 91.781698 21.89390381 92.14691162 21.0501709 C92.8078616 19.52312294 93.46663998 17.99513205 94.12261963 16.46594238 C96.55687 10.84923333 99.24970123 5.50059753 102 0 C111.57 0 121.14 0 131 0 C128.94620131 6.16139608 126.81631565 11.99759857 124.19140625 17.8984375 C123.828797 18.72223404 123.46618774 19.54603058 123.09259033 20.39479065 C121.91977009 23.05659041 120.74123367 25.71581433 119.5625 28.375 C118.74211016 30.23366348 117.92204456 32.09247009 117.10229492 33.95141602 C114.74055938 39.30347358 112.37158486 44.65230069 110 50 C109.69328369 50.69184387 109.38656738 51.38368774 109.07055664 52.09649658 C106.86064122 57.08060526 104.64781977 62.0634078 102.42822266 67.04321289 C99.61627301 73.35275092 96.82108649 79.66941318 94.0390625 85.9921875 C93.69870468 86.76536819 93.35834686 87.53854889 93.00767517 88.3351593 C91.33180719 92.14247465 89.65747115 95.95045126 87.9855957 99.75952148 C87.374575 101.14830258 86.76349391 102.53705712 86.15234375 103.92578125 C85.87786407 104.55269867 85.6033844 105.17961609 85.32058716 105.82553101 C83.64941507 109.61798165 81.8571761 113.28564779 80 117 C70.43 117 60.86 117 51 117 C41.74039556 96.43506455 32.62254218 75.81264503 23.57556152 55.1534729 C20.69958253 48.58882595 17.81065453 42.02995579 14.91796875 35.47265625 C13.67894249 32.66110139 12.44016933 29.84943518 11.20150757 27.03771973 C10.40671043 25.23498715 9.61100935 23.43265282 8.81436157 21.6307373 C7.70713924 19.12598417 6.60322913 16.61979522 5.5 14.11328125 C5.17376144 13.37763443 4.84752289 12.64198761 4.51139832 11.88404846 C4.20857437 11.19439499 3.90575043 10.50474152 3.59375 9.79418945 C3.33271484 9.20281693 3.07167969 8.6114444 2.80273438 8.00215149 C1.75097138 5.37888169 0.89374212 2.68122637 0 0 Z " fill="#FFFFFF" transform="translate(505,45)"/>
<path d="M0 0 C4.47621684 1.74666364 6.08594167 5.51691813 8.48046875 9.52734375 C9.44083597 11.08969414 10.40299697 12.65094372 11.3671875 14.2109375 C11.78572998 14.90630615 12.20427246 15.6016748 12.63549805 16.31811523 C13.80138433 18.23508435 13.80138433 18.23508435 15.79296875 20.08984375 C16.12095459 19.51951416 16.44894043 18.94918457 16.78686523 18.36157227 C18.26643314 15.79088533 19.74841757 13.22159976 21.23046875 10.65234375 C22.00487305 9.3055957 22.00487305 9.3055957 22.79492188 7.93164062 C23.28798828 7.07763672 23.78105469 6.22363281 24.2890625 5.34375 C24.74466553 4.55299072 25.20026855 3.76223145 25.66967773 2.94750977 C26.79296875 1.08984375 26.79296875 1.08984375 27.79296875 0.08984375 C29.44296875 0.08984375 31.09296875 0.08984375 32.79296875 0.08984375 C32.79296875 10.97984375 32.79296875 21.86984375 32.79296875 33.08984375 C30.81296875 33.08984375 28.83296875 33.08984375 26.79296875 33.08984375 C26.29796875 23.68484375 26.29796875 23.68484375 25.79296875 14.08984375 C23.3662925 18.642231 23.3662925 18.642231 20.9777832 23.21459961 C20.03125 24.9296875 20.03125 24.9296875 17.79296875 28.08984375 C16.14296875 28.41984375 14.49296875 28.74984375 12.79296875 29.08984375 C9.82296875 23.80984375 6.85296875 18.52984375 3.79296875 13.08984375 C3.46296875 19.68984375 3.13296875 26.28984375 2.79296875 33.08984375 C1.14296875 33.08984375 -0.50703125 33.08984375 -2.20703125 33.08984375 C-4.11553073 31.18134427 -3.33762758 27.77505601 -3.33984375 25.24609375 C-3.34080048 24.56180298 -3.3417572 23.87751221 -3.34274292 23.17248535 C-3.34342455 21.72322498 -3.34157148 20.27396157 -3.33740234 18.82470703 C-3.33205377 16.59921447 -3.33734785 14.37392374 -3.34375 12.1484375 C-3.34308922 10.74348914 -3.34180805 9.3385409 -3.33984375 7.93359375 C-3.33871582 6.64646484 -3.33758789 5.35933594 -3.33642578 4.03320312 C-3.16478372 0.1288319 -3.16478372 0.1288319 0 0 Z " fill="#FFFFFF" transform="translate(694.20703125,184.91015625)"/>
<path d="M0 0 C2.40283203 -0.09887695 2.40283203 -0.09887695 5 0 C6.5546875 1.58203125 6.5546875 1.58203125 7.875 3.8125 C8.37 4.62203125 8.865 5.4315625 9.375 6.265625 C9.91125 7.16796875 10.4475 8.0703125 11 9 C12.28695349 11.02383815 13.57859263 13.04470465 14.875 15.0625 C15.91764553 16.70771339 16.95966892 18.35332211 18 20 C18.60328125 19.05898437 19.2065625 18.11796875 19.828125 17.1484375 C20.63538914 15.89060733 21.44268236 14.63279583 22.25 13.375 C22.64574219 12.75753906 23.04148437 12.14007813 23.44921875 11.50390625 C24.24260774 10.26830044 25.04143944 9.03617233 25.84570312 7.80761719 C26.94589503 6.08472783 27.96758024 4.31244863 28.984375 2.5390625 C29.64953125 1.70117188 30.3146875 0.86328125 31 0 C32.65 0 34.3 0 36 0 C36 10.89 36 21.78 36 33 C34.35 33 32.7 33 31 33 C29.48578999 31.48578999 29.78690144 30.07527232 29.68359375 27.96484375 C29.64169922 27.15595703 29.59980469 26.34707031 29.55664062 25.51367188 C29.51732422 24.66353516 29.47800781 23.81339844 29.4375 22.9375 C29.39431641 22.08349609 29.35113281 21.22949219 29.30664062 20.34960938 C29.20023298 18.23327963 29.09958269 16.11666187 29 14 C26.03 18.95 23.06 23.9 20 29 C14.89087164 27.72271791 13.7965374 25.17810011 11.25 20.9375 C9.8475 18.648125 8.445 16.35875 7 14 C6.67 20.27 6.34 26.54 6 33 C4.35 33 2.7 33 1 33 C0 32 0 32 -0.11352539 28.94897461 C-0.11336634 27.60008729 -0.10767612 26.25119386 -0.09765625 24.90234375 C-0.0962413 24.19348526 -0.09482635 23.48462677 -0.09336853 22.75428772 C-0.08775443 20.48198288 -0.07519963 18.20977525 -0.0625 15.9375 C-0.05748681 14.40039204 -0.05292359 12.86328255 -0.04882812 11.32617188 C-0.03778042 7.55074358 -0.02050641 3.77538829 0 0 Z " fill="#FFFFFF" transform="translate(263,185)"/>
<path d="M0 0 C3.04263267 -0.10845027 6.08136204 -0.18752063 9.125 -0.25 C9.9809375 -0.28351563 10.836875 -0.31703125 11.71875 -0.3515625 C17.3622469 -0.43838553 20.51845179 0.23047347 25 4 C27.48018753 6.48018753 27.32361558 7.38515951 27.375 10.8125 C27.31060502 14.52057752 27.0892369 15.85127184 25.125 19.125 C23 21 23 21 21 21 C21.75796875 22.04800781 21.75796875 22.04800781 22.53125 23.1171875 C23.50578125 24.48230469 23.50578125 24.48230469 24.5 25.875 C25.1496875 26.77992188 25.799375 27.68484375 26.46875 28.6171875 C28 31 28 31 28 33 C25.375 33.5 25.375 33.5 22 33 C19.5736254 30.60641425 17.67802863 27.96332716 16 25 C16 24.34 16 23.68 16 23 C12.7 23 9.4 23 6 23 C6 26.3 6 29.6 6 33 C4.35 33 2.7 33 1 33 C0 32 0 32 -0.11352539 28.94897461 C-0.11336634 27.60008729 -0.10767612 26.25119386 -0.09765625 24.90234375 C-0.0962413 24.19348526 -0.09482635 23.48462677 -0.09336853 22.75428772 C-0.08775443 20.48198288 -0.07519963 18.20977525 -0.0625 15.9375 C-0.05748681 14.40039204 -0.05292359 12.86328255 -0.04882812 11.32617188 C-0.03778042 7.55074358 -0.02050641 3.77538829 0 0 Z M6 5 C6 9.29 6 13.58 6 18 C7.7325 18.061875 9.465 18.12375 11.25 18.1875 C12.22453125 18.22230469 13.1990625 18.25710937 14.203125 18.29296875 C17.40828572 17.95723264 18.68321953 17.1889581 21 15 C22.08568503 13.15732132 22.08568503 13.15732132 22 11 C20.23136411 7.30240822 20.23136411 7.30240822 17 5 C13.32984725 4.8622315 9.67388652 4.95728039 6 5 Z " fill="#FFFFFF" transform="translate(794,185)"/>
<path d="M0 0 C4.68929867 3.22389283 7.20208682 6.22475224 8.75 11.8359375 C9.49794512 17.72600528 8.72405164 21.20413183 5.28515625 26.0703125 C2.0308045 29.81323106 -0.96811823 31.5128392 -5.8984375 32.2109375 C-12.24198163 32.48901067 -16.17855827 31.6653935 -21.25 27.8359375 C-25.17268459 23.70679583 -26.081793 21.06468021 -26.5 15.5234375 C-26.10698027 9.72639644 -24.55348101 6.13941851 -20.4375 2.0234375 C-13.91309419 -2.4540959 -7.22123594 -3.73598665 0 0 Z M-19.25 8.8359375 C-20.85865775 12.05325301 -20.71696133 15.3466987 -20.25 18.8359375 C-18.56108473 22.21376804 -17.21839703 24.19956231 -14.0625 26.2734375 C-9.92391419 27.10115466 -6.30727684 27.06852793 -2.25 25.8359375 C1.01421243 23.17127429 2.34495738 21.71051491 3.22265625 17.6484375 C3.50031803 13.43367414 3.05965602 10.65979733 0.375 7.3359375 C-3.44219869 3.70051018 -5.80842152 3.44357248 -10.921875 3.4765625 C-14.84004236 4.08138028 -16.55358816 6.00470507 -19.25 8.8359375 Z " fill="#FFFFFF" transform="translate(545.25,186.1640625)"/>
<path d="M0 0 C7.92 0 15.84 0 24 0 C24 1.65 24 3.3 24 5 C18.06 5 12.12 5 6 5 C6 7.64 6 10.28 6 13 C11.28 13 16.56 13 22 13 C22 14.65 22 16.3 22 18 C21 19 21 19 17.62109375 19.09765625 C16.22652923 19.09098369 14.83198257 19.07902532 13.4375 19.0625 C12.72658203 19.05798828 12.01566406 19.05347656 11.28320312 19.04882812 C9.52209987 19.03700864 7.76103964 19.01907263 6 19 C6 21.64 6 24.28 6 27 C11.94 27 17.88 27 24 27 C24.33 28.65 24.66 30.3 25 32 C24 33 24 33 21.68334961 33.11352539 C20.68311768 33.10828857 19.68288574 33.10305176 18.65234375 33.09765625 C17.19429321 33.09390991 17.19429321 33.09390991 15.70678711 33.09008789 C14.46292236 33.08098389 13.21905762 33.07187988 11.9375 33.0625 C7.998125 33.041875 4.05875 33.02125 0 33 C0 22.11 0 11.22 0 0 Z " fill="#FFFFFF" transform="translate(412,185)"/>
<path d="M0 0 C2.84625 -0.061875 5.6925 -0.12375 8.625 -0.1875 C9.51010254 -0.21481201 10.39520508 -0.24212402 11.30712891 -0.27026367 C16.28740835 -0.32238679 19.70617408 0.19478861 24 3 C26.46106473 6.41373495 27.2450399 8.99627683 26.9375 13.125 C25.97028127 17.12283741 25.28172285 18.61329247 22 21 C21.34 21 20.68 21 20 21 C20.75796875 22.04800781 20.75796875 22.04800781 21.53125 23.1171875 C22.50578125 24.48230469 22.50578125 24.48230469 23.5 25.875 C24.1496875 26.77992188 24.799375 27.68484375 25.46875 28.6171875 C27 31 27 31 27 33 C24.375 33.5 24.375 33.5 21 33 C18.5736254 30.60641425 16.67802863 27.96332716 15 25 C15 24.34 15 23.68 15 23 C11.7 23 8.4 23 5 23 C5 26.3 5 29.6 5 33 C3.35 33 1.7 33 0 33 C0 22.11 0 11.22 0 0 Z M5 5 C5 9.29 5 13.58 5 18 C12.37544429 18.51423658 12.37544429 18.51423658 19.25 16.4375 C21.3523541 14.00932957 21.3523541 14.00932957 21 10.375 C20.31742476 6.74926111 20.31742476 6.74926111 17 5 C12.98500069 4.73125841 9.02862593 4.91336288 5 5 Z " fill="#FFFFFF" transform="translate(621,185)"/>
<path d="M0 0 C1.65 0 3.3 0 5 0 C5.33 4.95 5.66 9.9 6 15 C7.01320313 13.9171875 8.02640625 12.834375 9.0703125 11.71875 C10.4210621 10.31171917 11.77266979 8.90551174 13.125 7.5 C14.12273438 6.42685547 14.12273438 6.42685547 15.140625 5.33203125 C20.21839684 0.10491318 20.21839684 0.10491318 24.4921875 -0.46875 C25.31976562 -0.3140625 26.14734375 -0.159375 27 0 C25.07298571 4.68445462 21.48172866 7.43805671 17.80078125 10.78125 C15.80883053 12.77367079 15.80883053 12.77367079 15.953125 14.9296875 C17.42354703 17.83761167 19.33979899 20.13460936 21.4375 22.625 C22.24058594 23.58664063 23.04367187 24.54828125 23.87109375 25.5390625 C25.19669666 27.07141082 26.56729025 28.56729025 28 30 C28 30.99 28 31.98 28 33 C25.29296875 33.30078125 25.29296875 33.30078125 22 33 C19.55078125 30.91796875 19.55078125 30.91796875 17.3125 28.1875 C16.56613281 27.29417969 15.81976562 26.40085938 15.05078125 25.48046875 C14.03564453 24.25263672 14.03564453 24.25263672 13 23 C12.01533139 21.98490013 11.02246324 20.97702043 10 20 C7.53686261 21.82748903 6.16571382 23.22976216 5.51171875 26.26953125 C5.27481707 28.51479346 5.09638651 30.74455578 5 33 C3.33388095 33.042721 1.66617115 33.04063832 0 33 C-1.90849948 31.09150052 -1.13059633 27.68521226 -1.1328125 25.15625 C-1.13376923 24.47195923 -1.13472595 23.78766846 -1.13571167 23.0826416 C-1.1363933 21.63338123 -1.13454023 20.18411782 -1.13037109 18.73486328 C-1.12502252 16.50937072 -1.1303166 14.28407999 -1.13671875 12.05859375 C-1.13605797 10.65364539 -1.1347768 9.24869715 -1.1328125 7.84375 C-1.13168457 6.55662109 -1.13055664 5.26949219 -1.12939453 3.94335938 C-1 1 -1 1 0 0 Z " fill="#FFFFFF" transform="translate(841,185)"/>
<path d="M0 0 C1.65 0 3.3 0 5 0 C5.66 4.95 6.32 9.9 7 15 C7.763125 14.071875 8.52625 13.14375 9.3125 12.1875 C13.19825269 7.54435484 13.19825269 7.54435484 15 6 C15.66 6 16.32 6 17 6 C17.433125 5.071875 17.433125 5.071875 17.875 4.125 C19 2 19 2 21 0 C24.625 -0.125 24.625 -0.125 28 0 C27.1875 1.9375 27.1875 1.9375 26 4 C25.01 4.33 24.02 4.66 23 5 C22.566875 5.86625 22.566875 5.86625 22.125 6.75 C20.61984999 9.76030003 18.42622037 11.70147544 16 14 C17.99033164 18.86791956 21.75752052 22.50541079 25.1875 26.3984375 C29 30.79592427 29 30.79592427 29 33 C23.02424619 33.77587815 23.02424619 33.77587815 20.39111328 31.78125 C18.84375069 30.08338561 17.44257479 28.33628208 16.0625 26.5 C15.56943359 25.87996094 15.07636719 25.25992188 14.56835938 24.62109375 C13.35977384 23.09569453 12.17720836 21.54974265 11 20 C7.25869499 22.49138006 7.25869499 22.49138006 5.29296875 26.359375 C5.25816406 27.14828125 5.22335937 27.9371875 5.1875 28.75 C5.13980469 29.54921875 5.09210938 30.3484375 5.04296875 31.171875 C5.02878906 31.77515625 5.01460938 32.3784375 5 33 C3.35 33 1.7 33 0 33 C0 22.11 0 11.22 0 0 Z " fill="#FFFFFF" transform="translate(367,185)"/>
<path d="M0 0 C1.4540625 0.0309375 1.4540625 0.0309375 2.9375 0.0625 C4.93867003 4.27659001 6.93227704 8.49414181 8.91894531 12.71508789 C9.59591041 14.15063683 10.27493558 15.58521616 10.95605469 17.01879883 C11.93446789 19.07902897 12.90543066 21.1426272 13.875 23.20703125 C14.18123291 23.84776077 14.48746582 24.4884903 14.80297852 25.14863586 C16.12771902 27.98629456 16.9375 29.8887216 16.9375 33.0625 C14.9575 33.0625 12.9775 33.0625 10.9375 33.0625 C9.4525 29.5975 9.4525 29.5975 7.9375 26.0625 C2.3275 25.7325 -3.2825 25.4025 -9.0625 25.0625 C-9.7225 27.3725 -10.3825 29.6825 -11.0625 32.0625 C-12.0625 33.0625 -12.0625 33.0625 -14.625 33.125 C-15.429375 33.104375 -16.23375 33.08375 -17.0625 33.0625 C-16.48796939 28.54609797 -15.29869396 24.94267838 -13.375 20.82421875 C-12.57449219 19.10041992 -12.57449219 19.10041992 -11.7578125 17.34179688 C-11.19835937 16.15650391 -10.63890625 14.97121094 -10.0625 13.75 C-9.49677301 12.53349257 -8.93166287 11.31669808 -8.3671875 10.09960938 C-3.68574646 0.07521932 -3.68574646 0.07521932 0 0 Z M-1.0625 7.0625 C-1.90040789 8.85203185 -2.73269396 10.64419695 -3.5625 12.4375 C-4.0265625 13.43523437 -4.490625 14.43296875 -4.96875 15.4609375 C-6.1916873 17.89942626 -6.1916873 17.89942626 -6.0625 20.0625 C-2.1025 20.0625 1.8575 20.0625 5.9375 20.0625 C3.9575 15.7725 1.9775 11.4825 -0.0625 7.0625 C-0.3925 7.0625 -0.7225 7.0625 -1.0625 7.0625 Z " fill="#FFFFFF" transform="translate(333.0625,184.9375)"/>
<path d="M0 0 C1.98 0 3.96 0 6 0 C10.08900958 8.08243192 14.14019477 16.18010373 18 24.375 C18.30236572 25.01058838 18.60473145 25.64617676 18.91625977 26.30102539 C21 30.76199899 21 30.76199899 21 33 C19.02 33 17.04 33 15 33 C13.515 29.535 13.515 29.535 12 26 C6.39 25.67 0.78 25.34 -5 25 C-5.66 26.98 -6.32 28.96 -7 31 C-7.33 31.66 -7.66 32.32 -8 33 C-9.98 33 -11.96 33 -14 33 C-12.63568604 28.70326019 -11.02112055 24.6216523 -9.1796875 20.5078125 C-8.64472656 19.30898437 -8.10976563 18.11015625 -7.55859375 16.875 C-6.99745717 15.62497246 -6.43625849 14.3749728 -5.875 13.125 C-5.30573112 11.85167802 -4.73671824 10.57824156 -4.16796875 9.3046875 C-2.78115731 6.20199072 -1.39175486 3.10048172 0 0 Z M3 7 C2.15930585 8.60032137 1.32768495 10.20541171 0.5 11.8125 C0.0359375 12.70582031 -0.428125 13.59914062 -0.90625 14.51953125 C-2.20173141 17.00568026 -2.20173141 17.00568026 -2 20 C1.63 20 5.26 20 9 20 C8.566875 18.5975 8.13375 17.195 7.6875 15.75 C7.44386719 14.96109375 7.20023438 14.1721875 6.94921875 13.359375 C5.94891677 10.87302768 4.69142391 9.0657166 3 7 Z " fill="#FFFFFF" transform="translate(757,185)"/>
<path d="M0 0 C1.98 0 3.96 0 6 0 C6.01981934 0.64549805 6.03963867 1.29099609 6.06005859 1.95605469 C6.15546328 4.88777221 6.26507971 7.81879232 6.375 10.75 C6.4059375 11.76578125 6.436875 12.7815625 6.46875 13.828125 C6.50742187 14.8078125 6.54609375 15.7875 6.5859375 16.796875 C6.6173584 17.69760742 6.6487793 18.59833984 6.68115234 19.52636719 C7.02174192 22.16867467 7.46378864 23.82056566 9 26 C13.23334718 26.88763731 16.85738687 27.55347992 21 26 C21.74515899 22.61363691 22.16770563 19.38056897 22.31640625 15.91796875 C22.35830078 14.98662109 22.40019531 14.05527344 22.44335938 13.09570312 C22.48267578 12.13599609 22.52199219 11.17628906 22.5625 10.1875 C22.60568359 9.20845703 22.64886719 8.22941406 22.69335938 7.22070312 C22.7990226 4.81392973 22.90112327 2.40706017 23 0 C24.65 0 26.3 0 28 0 C28.11662261 4.04142215 28.1873935 8.08240865 28.25 12.125 C28.30027344 13.83816406 28.30027344 13.83816406 28.3515625 15.5859375 C28.47673857 26.35107918 28.47673857 26.35107918 24 31 C19.59380174 34.11131551 14.15718329 33.59793429 9 33 C3.92269259 30.6426787 1.95292427 28.17778192 0 23 C-0.35700242 19.03338784 -0.28304081 15.10341752 -0.1875 11.125 C-0.17396484 10.05507812 -0.16042969 8.98515625 -0.14648438 7.8828125 C-0.11128624 5.25468489 -0.06204693 2.62760806 0 0 Z " fill="#FFFFFF" transform="translate(572,185)"/>
<path d="M0 0 C2.703125 -0.43359375 2.703125 -0.43359375 6 0 C7.91998173 2.33960038 9.29848025 4.33538532 10.75 6.9375 C13.14737833 11.68116807 13.14737833 11.68116807 17 15 C17.27328125 14.28457031 17.5465625 13.56914062 17.828125 12.83203125 C19.7242969 8.24961583 21.86314465 3.86584285 25 0 C28.375 -0.625 28.375 -0.625 31 0 C29.70170851 3.7458902 27.86176859 6.82133745 25.67358398 10.11499023 C20.71221264 17.68100805 18.60978837 23.74418012 19 33 C17.02 33 15.04 33 13 33 C13.05542969 32.34257812 13.11085938 31.68515625 13.16796875 31.0078125 C13.23927339 20.48324736 7.8081564 13.20330364 2.10742188 4.80249023 C1 3 1 3 0 0 Z " fill="#FFFFFF" transform="translate(475,185)"/>
</svg>
